<svg width="607" height="117" viewBox="0 0 607 117" fill="none" xmlns="http://www.w3.org/2000/svg">
<path d="M251.743 93.3151C251.743 95.6375 250.916 97.6227 249.262 99.2708L236.856 111.632C235.202 113.28 233.21 114.104 230.879 114.104H210.578C208.248 114.104 206.255 113.28 204.601 111.632L192.195 99.2708C190.541 97.6227 189.714 95.6375 189.714 93.3151V39.3767C189.714 37.0543 190.541 35.0691 192.195 33.421L204.601 21.0601C206.255 19.412 208.248 18.5879 210.578 18.5879H230.879C233.21 18.5879 235.202 19.412 236.856 21.0601L249.262 33.421C250.916 35.0691 251.743 37.0543 251.743 39.3767V53.4231C251.743 54.6967 251.292 55.783 250.39 56.6819C249.563 57.506 248.51 57.918 247.232 57.918H239.337C238.059 57.918 236.969 57.506 236.067 56.6819C235.24 55.783 234.826 54.6967 234.826 53.4231V46.3437C234.826 44.0214 233.999 42.0361 232.345 40.388L229.864 37.9158C228.21 36.2677 226.217 35.4437 223.886 35.4437H217.571C215.24 35.4437 213.248 36.2677 211.593 37.9158L209.112 40.388C207.458 42.0361 206.631 44.0214 206.631 46.3437V86.3481C206.631 88.6704 207.458 90.6556 209.112 92.3037L211.593 94.7759C213.248 96.4241 215.24 97.2481 217.571 97.2481H223.886C226.217 97.2481 228.21 96.4241 229.864 94.7759L232.345 92.3037C233.999 90.6556 234.826 88.6704 234.826 86.3481C234.826 85.0745 235.24 84.0257 236.067 83.2017C236.969 82.3027 238.059 81.8532 239.337 81.8532H247.232C248.51 81.8532 249.563 82.3027 250.39 83.2017C251.292 84.0257 251.743 85.0745 251.743 86.3481V93.3151Z" fill="#FFCC02"/>
<path d="M322.794 93.3151C322.794 95.6375 321.967 97.6227 320.313 99.2708L307.907 111.632C306.253 113.28 304.261 114.104 301.93 114.104H281.63C279.299 114.104 277.307 113.28 275.652 111.632L263.247 99.2708C261.592 97.6227 260.765 95.6375 260.765 93.3151V39.3767C260.765 37.0543 261.592 35.0691 263.247 33.421L275.652 21.0601C277.307 19.412 279.299 18.5879 281.63 18.5879H301.93C304.261 18.5879 306.253 19.412 307.907 21.0601L320.313 33.421C321.967 35.0691 322.794 37.0543 322.794 39.3767V93.3151ZM305.877 86.3481V46.3437C305.877 44.0214 305.05 42.0361 303.396 40.388L300.915 37.9158C299.261 36.2677 297.269 35.4437 294.938 35.4437H288.622C286.291 35.4437 284.299 36.2677 282.645 37.9158L280.164 40.388C278.509 42.0361 277.682 44.0214 277.682 46.3437V86.3481C277.682 88.6704 278.509 90.6556 280.164 92.3037L282.645 94.7759C284.299 96.4241 286.291 97.2481 288.622 97.2481H294.938C297.269 97.2481 299.261 96.4241 300.915 94.7759L303.396 92.3037C305.05 90.6556 305.877 88.6704 305.877 86.3481Z" fill="#FFCC02"/>
<path d="M393.846 86.011C393.846 88.3333 393.019 90.3185 391.365 91.9667L371.628 111.632C369.974 113.28 367.982 114.104 365.651 114.104H336.328C335.05 114.104 333.96 113.692 333.057 112.868C332.23 111.969 331.817 110.883 331.817 109.609V23.0828C331.817 21.8092 332.23 20.7604 333.057 19.9364C333.96 19.0374 335.05 18.5879 336.328 18.5879H365.651C367.982 18.5879 369.974 19.412 371.628 21.0601L391.365 40.7251C393.019 42.3732 393.846 44.3585 393.846 46.6808V86.011ZM376.929 79.0439V53.6479C376.929 51.3255 376.102 49.3403 374.448 47.6922L364.636 37.9158C362.982 36.2677 360.989 35.4437 358.659 35.4437H353.245C351.967 35.4437 350.877 35.8932 349.974 36.7921C349.147 37.6162 348.734 38.665 348.734 39.9385V92.7533C348.734 94.0268 349.147 95.1131 349.974 96.012C350.877 96.8361 351.967 97.2481 353.245 97.2481H358.659C360.989 97.2481 362.982 96.4241 364.636 94.7759L374.448 84.9996C376.102 83.3515 376.929 81.3662 376.929 79.0439Z" fill="#FFCC02"/>
<path d="M464.897 109.609C464.897 110.883 464.446 111.969 463.544 112.868C462.717 113.692 461.664 114.104 460.386 114.104H407.379C406.101 114.104 405.011 113.692 404.109 112.868C403.282 111.969 402.868 110.883 402.868 109.609V23.0828C402.868 21.8092 403.282 20.7604 404.109 19.9364C405.011 19.0374 406.101 18.5879 407.379 18.5879H460.386C461.664 18.5879 462.717 19.0374 463.544 19.9364C464.446 20.7604 464.897 21.8092 464.897 23.0828V30.9488C464.897 32.2223 464.446 33.3086 463.544 34.2076C462.717 35.0316 461.664 35.4437 460.386 35.4437H424.296C423.018 35.4437 421.928 35.8932 421.026 36.7921C420.199 37.6162 419.785 38.665 419.785 39.9385V53.4231C419.785 54.6967 420.199 55.783 421.026 56.6819C421.928 57.506 423.018 57.918 424.296 57.918H449.108C450.386 57.918 451.439 58.3675 452.266 59.2665C453.168 60.0905 453.619 61.1393 453.619 62.4129V70.2789C453.619 71.5524 453.168 72.6387 452.266 73.5377C451.439 74.3618 450.386 74.7738 449.108 74.7738H424.296C423.018 74.7738 421.928 75.2233 421.026 76.1222C420.199 76.9463 419.785 77.9951 419.785 79.2686V92.7533C419.785 94.0268 420.199 95.1131 421.026 96.012C421.928 96.8361 423.018 97.2481 424.296 97.2481H460.386C461.664 97.2481 462.717 97.6976 463.544 98.5966C464.446 99.4206 464.897 100.469 464.897 101.743V109.609Z" fill="#FFCC02"/>
<path d="M535.948 109.609C535.948 110.883 535.497 111.969 534.595 112.868C533.768 113.692 532.715 114.104 531.437 114.104H523.543C522.264 114.104 521.174 113.692 520.272 112.868C519.445 111.969 519.031 110.883 519.031 109.609V85.6738C519.031 83.3515 518.204 81.3662 516.55 79.7181L514.069 77.2459C512.415 75.5978 510.423 74.7738 508.092 74.7738H495.348C494.069 74.7738 492.979 75.2233 492.077 76.1222C491.25 76.9463 490.836 77.9951 490.836 79.2686V109.609C490.836 110.883 490.385 111.969 489.483 112.868C488.656 113.692 487.603 114.104 486.325 114.104H478.431C477.152 114.104 476.062 113.692 475.16 112.868C474.333 111.969 473.919 110.883 473.919 109.609V23.0828C473.919 21.8092 474.333 20.7604 475.16 19.9364C476.062 19.0374 477.152 18.5879 478.431 18.5879H515.084C517.415 18.5879 519.407 19.412 521.061 21.0601L533.467 33.421C535.121 35.0691 535.948 37.0543 535.948 39.3767V53.985C535.948 56.3073 535.121 58.2926 533.467 59.9407L527.039 66.3459L533.467 72.7511C535.121 74.3992 535.948 76.3844 535.948 78.7068V109.609ZM519.031 47.018V46.3437C519.031 44.0214 518.204 42.0361 516.55 40.388L514.069 37.9158C512.415 36.2677 510.423 35.4437 508.092 35.4437H495.348C494.069 35.4437 492.979 35.8932 492.077 36.7921C491.25 37.6162 490.836 38.665 490.836 39.9385V53.4231C490.836 54.6967 491.25 55.783 492.077 56.6819C492.979 57.506 494.069 57.918 495.348 57.918H508.092C510.423 57.918 512.415 57.094 514.069 55.4458L516.55 52.9736C518.204 51.3255 519.031 49.3403 519.031 47.018Z" fill="#FFCC02"/>
<path d="M607 49.153C607 51.4753 606.173 53.4606 604.519 55.1087L584.782 74.7738C584.556 74.9985 584.444 75.6353 584.444 76.6841V109.609C584.444 110.883 583.993 111.969 583.09 112.868C582.263 113.692 581.211 114.104 579.932 114.104H572.038C570.76 114.104 569.67 113.692 568.767 112.868C567.94 111.969 567.527 110.883 567.527 109.609V76.6841C567.527 75.6353 567.414 74.9985 567.188 74.7738L547.452 55.1087C545.798 53.4606 544.971 51.4753 544.971 49.153V23.0828C544.971 21.8092 545.384 20.7604 546.211 19.9364C547.114 19.0374 548.204 18.5879 549.482 18.5879H557.376C558.655 18.5879 559.707 19.0374 560.534 19.9364C561.437 20.7604 561.888 21.8092 561.888 23.0828V42.186C561.888 44.5083 562.715 46.4935 564.369 48.1417L572.827 56.5695C573.429 57.4685 574.481 57.918 575.985 57.918C577.489 57.918 578.542 57.4685 579.143 56.5695L587.602 48.1417C589.256 46.4935 590.083 44.5083 590.083 42.186V23.0828C590.083 21.8092 590.496 20.7604 591.323 19.9364C592.226 19.0374 593.316 18.5879 594.594 18.5879H602.488C603.767 18.5879 604.819 19.0374 605.646 19.9364C606.549 20.7604 607 21.8092 607 23.0828V49.153Z" fill="#FFCC02"/>
<path d="M90.185 3.46666C90.5224 2.5212 91.0074 1.70706 91.6399 1.02424C92.3146 0.341408 93.179 0 94.2332 0H111.754C112.598 0 113.336 0.2101 113.968 0.630302C114.643 1.0505 114.98 1.65454 114.98 2.44242C114.98 3.0202 114.938 3.36161 114.854 3.46666L74.8779 113.533C74.414 114.846 73.9713 115.766 73.5496 116.291C73.1279 116.764 72.4742 117 71.5887 117H52.6129C50.884 117 50.0195 116.317 50.0195 114.952C50.0195 114.846 50.0406 114.741 50.0828 114.636L50.2725 113.533L90.185 3.46666Z" fill="white"/>
<path d="M34.0932 20.7329C34.5571 20.1551 35.1896 19.8662 35.9908 19.8662C36.8342 19.8662 37.53 20.2076 38.0782 20.8905L48.1986 33.4965C48.4938 33.8642 48.7046 34.2581 48.8312 34.6783C48.9577 35.0985 49.063 35.5187 49.1474 35.9389C49.063 36.3066 48.9577 36.7006 48.8312 37.1208C48.7468 37.541 48.5781 37.9612 48.3251 38.3814L27.6415 64.3026L48.3251 90.2238C48.8733 91.1167 49.1474 91.9309 49.1474 92.6662C49.1474 93.6642 48.8101 94.5834 48.1354 95.4238L37.7619 108.03C37.2559 108.765 36.6655 109.133 35.9908 109.133C35.274 109.133 34.6203 108.765 34.03 108.03L0.948801 66.6662C0.316274 65.8784 0 65.1167 0 64.3814C0 63.541 0.316274 62.7268 0.948801 61.9389L34.0932 20.7329Z" fill="#FFCC02"/>
<path d="M122.72 26.3477C123.184 25.7699 123.669 25.2184 124.175 24.6932C124.681 24.1679 125.355 23.9053 126.199 23.9053C126.789 23.9053 127.337 24.1942 127.843 24.7719C128.349 25.3497 128.834 25.9012 129.298 26.4265L161.051 65.8992C161.684 66.6871 162 67.5012 162 68.3416C162 69.077 161.684 69.8386 161.051 70.6265L127.97 111.99C127.38 112.725 126.726 113.093 126.009 113.093C125.292 113.093 124.702 112.725 124.238 111.99L113.865 99.3841C113.148 98.4911 112.789 97.5719 112.789 96.6265C112.789 95.8386 113.063 95.0245 113.612 94.1841L134.358 68.2629L113.612 42.3416C113.148 41.4487 112.895 40.6346 112.853 39.8992C112.895 39.0063 113.211 38.1921 113.801 37.4568L122.72 26.3477Z" fill="#FFCC02"/>
</svg>
