<svg width="151" height="117" viewBox="0 0 151 117" fill="none" xmlns="http://www.w3.org/2000/svg">
<path d="M83.185 3.46666C83.5224 2.5212 84.0074 1.70706 84.6399 1.02424C85.3146 0.341408 86.179 0 87.2332 0H104.754C105.598 0 106.336 0.2101 106.968 0.630302C107.643 1.0505 107.98 1.65454 107.98 2.44242C107.98 3.0202 107.938 3.36161 107.854 3.46666L67.8779 113.533C67.414 114.846 66.9713 115.766 66.5496 116.291C66.1279 116.764 65.4742 117 64.5887 117H45.6129C43.884 117 43.0195 116.317 43.0195 114.952C43.0195 114.846 43.0406 114.741 43.0828 114.636L43.2725 113.533L83.185 3.46666Z" fill="black"/>
<path d="M34.0932 14.7329C34.5571 14.1551 35.1896 13.8662 35.9908 13.8662C36.8342 13.8662 37.53 14.2076 38.0782 14.8905L48.1986 27.4965C48.4938 27.8642 48.7046 28.2581 48.8312 28.6783C48.9577 29.0985 49.0631 29.5187 49.1474 29.9389C49.0631 30.3066 48.9577 30.7006 48.8312 31.1208C48.7468 31.541 48.5781 31.9612 48.3251 32.3814L27.6415 58.3026L48.3251 84.2238C48.8733 85.1167 49.1474 85.9309 49.1474 86.6662C49.1474 87.6642 48.8101 88.5834 48.1354 89.4238L37.7619 102.03C37.2559 102.765 36.6655 103.133 35.9908 103.133C35.274 103.133 34.6203 102.765 34.03 102.03L0.948801 60.6662C0.316274 59.8784 0 59.1167 0 58.3814C0 57.541 0.316274 56.7268 0.948801 55.9389L34.0932 14.7329Z" fill="#FFCC02"/>
<path d="M111.72 16.3477C112.184 15.7699 112.669 15.2184 113.175 14.6932C113.681 14.1679 114.355 13.9053 115.199 13.9053C115.789 13.9053 116.337 14.1942 116.843 14.7719C117.349 15.3497 117.834 15.9012 118.298 16.4265L150.051 55.8992C150.684 56.6871 151 57.5012 151 58.3416C151 59.077 150.684 59.8386 150.051 60.6265L116.97 101.99C116.38 102.725 115.726 103.093 115.009 103.093C114.292 103.093 113.702 102.725 113.238 101.99L102.865 89.3841C102.148 88.4911 101.789 87.5719 101.789 86.6265C101.789 85.8386 102.063 85.0245 102.612 84.1841L123.358 58.2629L102.612 32.3416C102.148 31.4487 101.895 30.6346 101.853 29.8992C101.895 29.0063 102.211 28.1921 102.801 27.4568L111.72 16.3477Z" fill="#FFCC02"/>
</svg>
